<svg xmlns="http://www.w3.org/2000/svg" width="1280" height="720" viewBox="0 0 1280 720">
  <defs>
    <linearGradient id="cbg" x1="0%" y1="0%" x2="0%" y2="100%">
      <stop offset="0%" style="stop-color:#0c0f14"/>
      <stop offset="100%" style="stop-color:#0e1219"/>
    </linearGradient>
    <linearGradient id="btn" x1="0%" y1="0%" x2="0%" y2="100%">
      <stop offset="0%" style="stop-color:#4aa8ff"/>
      <stop offset="100%" style="stop-color:#2568b8"/>
    </linearGradient>
  </defs>
  <rect width="1280" height="720" fill="url(#cbg)"/>
  <text x="48" y="52" fill="#e8edf5" font-family="system-ui,sans-serif" font-size="26" font-weight="600">OpenClaw configuration</text>
  <rect x="48" y="58" width="110" height="20" rx="6" fill="rgba(61,159,255,0.18)" stroke="rgba(61,159,255,0.35)"/>
  <text x="56" y="73" fill="#b8dcff" font-family="system-ui,sans-serif" font-size="9" font-weight="700">CLASSIC</text>
  <text x="170" y="72" fill="#8b9cb3" font-family="system-ui,sans-serif" font-size="14">Edit openclaw.json (JSON5) with validation</text>
  <text x="980" y="48" fill="#3d9fff" font-family="system-ui,sans-serif" font-size="13" font-weight="600">Switch to workflow studio</text>
  <rect x="48" y="95" width="1184" height="120" rx="10" fill="#161d2a" stroke="#243044"/>
  <text x="72" y="130" fill="#8b9cb3" font-family="system-ui,sans-serif" font-size="11" font-weight="600">GATEWAY / CONTROL UI BASE URL</text>
  <rect x="72" y="140" width="520" height="32" rx="8" fill="#121822" stroke="#243044"/>
  <text x="84" y="161" fill="#e8edf5" font-family="monospace,sans-serif" font-size="13">http://127.0.0.1:18789</text>
  <text x="640" y="130" fill="#8b9cb3" font-family="system-ui,sans-serif" font-size="11" font-weight="600">OPENCLAW.JSON PATH</text>
  <rect x="640" y="140" width="520" height="32" rx="8" fill="#121822" stroke="#243044"/>
  <text x="652" y="161" fill="#e8edf5" font-family="monospace,sans-serif" font-size="13">~/.openclaw/openclaw.json</text>
  <rect x="72" y="185" width="130" height="28" rx="8" fill="#121822" stroke="#243044"/>
  <text x="95" y="204" fill="#e8edf5" font-family="system-ui,sans-serif" font-size="12">Reload file</text>
  <rect x="48" y="235" width="90" height="34" rx="8" fill="url(#btn)"/>
  <text x="70" y="257" fill="#ffffff" font-family="system-ui,sans-serif" font-size="13" font-weight="600">Validate</text>
  <rect x="150" y="235" width="90" height="34" rx="8" fill="url(#btn)"/>
  <text x="165" y="257" fill="#ffffff" font-family="system-ui,sans-serif" font-size="13" font-weight="600">Save</text>
  <g transform="translate(48,290)">
    <rect width="90" height="32" rx="8" fill="#161d2a" stroke="#243044"/>
    <text x="20" y="22" fill="#e8edf5" font-family="system-ui,sans-serif" font-size="13">Raw JSON5</text>
    <rect x="98" width="72" height="32" rx="8" fill="transparent"/>
    <text x="108" y="22" fill="#8b9cb3" font-family="system-ui,sans-serif" font-size="13">Browse</text>
    <rect x="186" width="88" height="32" rx="8" fill="transparent"/>
    <text x="196" y="22" fill="#8b9cb3" font-family="system-ui,sans-serif" font-size="13">Channels</text>
    <rect x="290" width="78" height="32" rx="8" fill="transparent"/>
    <text x="300" y="22" fill="#8b9cb3" font-family="system-ui,sans-serif" font-size="13">Plugins</text>
    <rect x="384" width="118" height="32" rx="8" fill="transparent"/>
    <text x="394" y="22" fill="#8b9cb3" font-family="system-ui,sans-serif" font-size="13">Agents &amp; tools</text>
  </g>
  <rect x="48" y="340" width="1184" height="280" rx="10" fill="#121822" stroke="#243044"/>
  <text x="72" y="380" fill="#9fd0ff" font-family="ui-monospace,monospace" font-size="12">{</text>
  <text x="88" y="405" fill="#9fd0ff" font-family="ui-monospace,monospace" font-size="12">&quot;agents&quot;: { &quot;defaults&quot;: { ... } },</text>
  <text x="88" y="430" fill="#9fd0ff" font-family="ui-monospace,monospace" font-size="12">&quot;channels&quot;: { ... },</text>
  <text x="88" y="455" fill="#9fd0ff" font-family="ui-monospace,monospace" font-size="12">&quot;plugins&quot;: { &quot;enabled&quot;: true }</text>
  <text x="72" y="480" fill="#9fd0ff" font-family="ui-monospace,monospace" font-size="12">}</text>
  <text x="48" y="680" fill="#5a6578" font-family="system-ui,sans-serif" font-size="12">Vector preview - Classic workspace (/classic)</text>
</svg>
